<svg width="25" height="24" viewBox="0 0 25 24" fill="none" xmlns="http://www.w3.org/2000/svg">
<path d="M20.2138 13.3114C18.1 13.3114 16.4328 11.8572 15.9602 9.60831C15.5343 7.57239 16.1472 5.06384 17.9598 3.24086C16.8691 2.83056 15.5862 2.61762 14.1632 2.61762H10.3666C8.94352 2.61762 7.66587 2.83056 6.57 3.24086C8.38779 5.06904 8.99546 7.57759 8.56958 9.61351C8.09695 11.8572 6.42978 13.3114 4.32114 13.3114C1.81779 13.3114 0 11.208 0 8.31509C0 6.248 0.919279 4.1965 2.52932 2.69552C3.84332 1.46462 6.26877 0 10.3666 0H14.1632C18.261 0 20.6864 1.46462 22.0004 2.69552C23.6053 4.1965 24.5298 6.248 24.5298 8.31509C24.5298 11.208 22.7172 13.3114 20.2138 13.3114ZM20.2865 4.67431C18.77 5.85847 18.2298 7.65549 18.5259 9.07336C18.6505 9.68102 19.04 10.6938 20.2138 10.6938C21.5538 10.6938 21.9121 9.19802 21.9121 8.31509C21.9121 6.9959 21.3201 5.67669 20.2865 4.67431ZM4.25362 4.67431C3.22008 5.67669 2.628 6.9959 2.628 8.31509C2.628 9.19802 2.98636 10.6938 4.32633 10.6938C5.50011 10.6938 5.88963 9.68103 6.01428 9.07856C6.31032 7.65549 5.77018 5.85847 4.25362 4.67431Z" fill="#79C043"/>
<path d="M13.5771 2.34766H10.9595V22.0992H13.5771V2.34766Z" fill="#79C043"/>
<path d="M4.36149 17.8245C4.38746 18.5776 4.41343 19.3411 4.49652 20.089C4.53807 20.4733 4.64714 20.9407 4.94318 21.216C5.26519 21.512 5.77937 21.5172 6.18967 21.5172H7.38421V23.9894C6.96353 23.9998 5.86247 23.9998 5.73262 23.9894C5.11458 23.9583 4.48614 23.8648 3.9408 23.5584C2.86051 22.9507 2.28402 21.8185 2.04511 20.6395C1.85813 19.7202 1.82178 18.7542 1.82178 17.8193H4.36149" fill="#79C043"/>
<path d="M20.176 17.8247C20.1345 18.8011 20.1241 18.7336 20.0618 19.7048C20.0306 20.1878 19.9839 20.863 19.5995 21.2058C19.2723 21.5018 18.7634 21.5174 18.3479 21.5174H17.1533V23.9896C17.574 24 18.6751 24 18.8049 23.9948C19.423 23.9636 20.0514 23.8701 20.5967 23.5637C21.8172 22.8782 22.3885 21.6213 22.5547 20.2761C22.669 19.3517 22.6586 19.4555 22.695 18.5259C22.7054 18.2921 22.7106 18.0688 22.7106 17.8247H20.176Z" fill="#79C043"/>
<path d="M17.8983 21.5176H6.64355V24.0002H17.8983V21.5176Z" fill="#79C043"/>
</svg>
